0
SECTION
2
ENTITIES
0
LWPOLYLINE
8
0
66
1
90
3
70
0
10
0
20
25
10
75
20
100
10
75
20
0
0
CIRCLE
8
0
10
50
20
50
40
40
0
LWPOLYLINE
8
0
66
1
90
10
70
1
10
43.45758190772475
20
67.78816122223199
10
50.6810391017188
20
43.78405731603637
10
58.75
20
67.61852643095929
10
66.8189608982812
20
43.78405731603637
10
74.04241809227526
20
67.78816122223199
10
75.95758190772474
20
67.21183877776801
10
66.9310391017188
20
37.21594268396363
10
58.75
20
61.3814735690407
10
50.5689608982812
20
37.21594268396363
10
41.54241809227525
20
67.21183877776801
0
LWPOLYLINE
8
0
66
1
90
6
70
1
10
-0.22980970388562794
20
25.22980970388563
10
75.325
20
100.78461940777126
10
75.325
20
0
10
74.675
20
0
10
74.675
20
99.21538059222874
10
0.22980970388562794
20
24.77019029611437
0
LWPOLYLINE
8
0
66
1
90
9
70
0
10
0
20
100
10
0
20
0
10
100
20
0
10
100
20
75
10
25
20
75
10
25
20
25
10
75
20
25
10
75
20
50
10
50
20
50
0
ENDSEC
0
EOF